<svg version="1.1" id="Layer_1" xmlns="http://www.w3.org/2000/svg" xmlns:xlink="http://www.w3.org/1999/xlink" x="0px" y="0px"
	 width="100%" viewBox="0 0 318 159" enable-background="new 0 0 318 159" xml:space="preserve">
<path fill="#FEFEFE" opacity="1.000000" stroke="none" 
	d="
M294.000000,160.000000 
	C196.000031,160.000000 98.500046,160.000000 1.000052,160.000000 
	C1.000035,107.000038 1.000035,54.000072 1.000017,1.000081 
	C106.999939,1.000054 212.999878,1.000054 318.999878,1.000027 
	C318.999908,53.999924 318.999908,106.999847 318.999939,159.999878 
	C310.833344,160.000000 302.666687,160.000000 294.000000,160.000000 
M70.070259,89.031517 
	C67.672806,89.155998 65.028572,89.966209 62.945683,89.216606 
	C60.760841,88.430321 59.133984,86.124809 57.229042,84.523987 
	C49.996014,78.445763 39.835030,79.935982 35.539295,88.918381 
	C42.826500,84.567459 46.489441,89.273544 50.843994,92.928642 
	C57.894005,98.846230 67.467415,97.081253 71.922134,89.006287 
	C71.847153,88.750664 71.772171,88.495041 71.697197,88.239410 
	C71.402855,88.428864 71.108513,88.618317 70.070259,89.031517 
M48.667244,73.629417 
	C54.840797,70.552109 56.598618,70.853806 61.513943,75.454811 
	C63.078617,76.919434 64.766960,78.384277 66.654518,79.348030 
	C73.681160,82.935707 82.019920,80.167061 84.434937,73.627060 
	C77.008926,75.083199 76.795021,75.302956 70.946724,69.610306 
	C64.845573,63.671535 50.787334,63.436485 48.052441,74.075706 
	C48.052441,74.075706 47.788498,74.091537 47.788498,74.091537 
	C47.788498,74.091537 47.977268,73.939857 48.667244,73.629417 
M169.330704,89.253326 
	C170.394104,90.465965 171.379562,91.773628 172.609894,92.782730 
	C172.782669,92.924446 174.613770,91.761536 174.896301,90.935417 
	C176.685638,85.703758 178.255066,80.396881 180.059113,74.593460 
	C172.346359,74.948837 175.886169,82.530571 171.919510,85.201202 
	C171.016052,82.478523 170.264008,79.794128 169.206100,77.236229 
	C168.800522,76.255569 167.446793,74.752968 166.961090,74.902679 
	C165.817566,75.255135 164.521255,76.272049 164.033707,77.356071 
	C162.951294,79.762772 162.327469,82.375740 161.580978,84.704079 
	C157.291214,82.313263 161.086929,74.783844 153.372665,74.746361 
	C155.137421,80.417480 156.655731,85.627426 158.445709,90.742294 
	C158.766251,91.658249 160.148285,92.586632 161.157089,92.739845 
	C161.805511,92.838341 163.029831,91.673882 163.368118,90.825218 
	C164.510330,87.959686 165.372025,84.982338 166.757965,80.784904 
	C167.778839,84.150482 168.438065,86.323769 169.330704,89.253326 
M225.780533,91.421661 
	C227.277267,91.968437 228.774017,92.515213 230.835052,93.268143 
	C230.835052,84.916733 230.942215,77.456261 230.709900,70.006371 
	C230.678101,68.986862 228.955261,68.020088 228.015350,67.028908 
	C227.626984,67.357681 227.238602,67.686462 226.850235,68.015236 
	C226.850235,70.617462 226.850235,73.219688 226.850235,75.904594 
	C219.535980,73.394066 215.782654,74.032318 213.006363,78.297890 
	C210.448715,82.227524 210.635101,86.235977 213.550934,89.826920 
	C216.711075,93.718781 220.726044,94.206963 225.780533,91.421661 
M113.901283,83.571182 
	C114.619156,89.450706 117.428055,92.976234 122.112617,93.052002 
	C125.748238,93.110809 129.395554,92.445885 132.943817,92.111488 
	C132.943817,86.487282 132.943817,80.741982 132.943817,74.690323 
	C130.897293,74.974655 128.993500,75.800774 127.454483,75.358276 
	C119.727608,73.136658 115.935379,75.088440 113.901283,83.571182 
M207.187149,77.770111 
	C203.150284,70.559517 196.812668,77.234177 191.747742,74.513542 
	C191.747742,80.993088 191.747742,86.746971 191.747742,92.500854 
	C192.145004,92.785599 192.542252,93.070343 192.939514,93.355087 
	C193.752853,92.358894 195.117294,91.439835 195.269684,90.351112 
	C195.634781,87.742882 194.810165,84.833443 195.654358,82.470192 
	C196.311630,80.630257 198.760345,79.430267 200.412888,77.945869 
	C201.647842,79.562935 203.443283,81.017372 203.971939,82.839363 
	C204.594177,84.983955 204.058014,87.449150 204.133804,89.771744 
	C204.228851,92.684517 204.276917,92.682945 208.298538,92.273811 
	C208.060287,87.705063 207.820480,83.106789 207.187149,77.770111 
M234.984772,87.307640 
	C239.892273,95.043182 247.166412,95.532440 252.590668,87.315544 
	C250.179398,87.739555 248.695786,88.258255 247.235062,88.200279 
	C244.685486,88.099068 241.394211,88.473221 239.851379,87.068832 
	C238.649887,85.975159 238.805161,82.022537 239.838577,80.164040 
	C241.373978,77.402748 244.363251,77.571136 247.287674,79.048279 
	C248.559662,79.690765 250.322693,79.361107 253.133652,79.565300 
	C247.727036,74.082703 243.732224,73.087700 239.484283,75.207085 
	C235.484497,77.202660 233.804825,81.261238 234.984772,87.307640 
M281.607544,79.303688 
	C282.639496,78.800491 283.671448,78.297295 284.959351,77.669289 
	C280.220459,73.559990 275.172577,72.827896 273.066528,76.274940 
	C267.325470,85.671478 278.972198,83.459793 282.092041,89.184624 
	C277.724213,88.831398 274.444061,88.566132 271.163940,88.300873 
	C271.831329,90.463181 272.671600,91.497833 273.747711,92.132629 
	C277.490906,94.340775 283.288330,93.120628 284.838043,89.916557 
	C286.485687,86.509857 284.626190,83.988678 279.153381,81.952652 
	C277.809937,81.452858 276.614258,80.555939 275.350647,79.841591 
	C275.538727,79.249756 275.726807,78.657913 275.914886,78.066078 
	C277.594788,78.348465 279.274689,78.630844 281.607544,79.303688 
M266.507507,78.865753 
	C266.874176,78.538391 267.240875,78.211037 267.607544,77.883675 
	C265.531738,76.646286 263.358154,74.292114 261.405640,74.463051 
	C259.125824,74.662636 256.438599,76.682014 255.149475,78.694275 
	C254.595734,79.558632 256.747772,82.817558 258.346039,84.217010 
	C260.008606,85.672760 262.486542,86.197281 264.607941,87.128990 
	C264.451935,87.809616 264.295929,88.490250 264.139923,89.170876 
	C260.853577,88.896347 257.567261,88.621811 254.280945,88.347282 
	C254.165909,88.934357 254.050888,89.521439 253.935852,90.108513 
	C255.613617,91.068275 257.195312,92.547241 258.989258,92.879120 
	C262.661133,93.558441 266.714844,93.648285 268.122803,89.133667 
	C269.575195,84.476540 265.971527,83.185036 262.502167,81.989388 
	C261.118286,81.512474 259.854980,80.685822 258.536774,80.018372 
	C258.719574,79.377525 258.902344,78.736687 259.085144,78.095840 
	C261.349396,78.438835 263.613647,78.781830 266.507507,78.865753 
M103.820160,70.417351 
	C102.998199,71.878326 102.056877,73.287849 101.397095,74.818718 
	C100.971497,75.806229 100.958794,76.971695 100.761040,78.057404 
	C105.892326,78.923904 103.501183,82.956192 103.643150,85.587059 
	C103.989616,92.007614 105.253265,93.295403 113.011009,92.383232 
	C108.803238,88.522858 105.465027,84.617233 108.070740,79.409599 
	C109.474136,78.450577 110.775139,77.561531 112.076141,76.672485 
	C110.744858,75.653038 109.413574,74.633598 107.754250,73.362953 
	C107.666290,72.305984 107.534088,70.717361 107.366554,68.704117 
	C106.099380,69.124840 105.194946,69.425133 103.820160,70.417351 
M146.334518,83.432281 
	C146.334839,85.594734 146.408188,87.760231 146.318298,89.918922 
	C146.184174,93.139618 147.646652,93.489098 150.028839,92.484138 
	C150.028839,83.621422 150.028839,75.053192 150.028839,66.484970 
	C149.531982,66.249786 149.035126,66.014603 148.538269,65.779419 
	C147.803909,67.012863 146.514709,68.212135 146.436264,69.485977 
	C146.170914,73.794556 146.334747,78.129570 146.334518,83.432281 
M137.896042,88.299210 
	C137.972870,89.744133 138.049698,91.189056 138.126526,92.633980 
	C138.591202,92.875694 139.055893,93.117401 139.520584,93.359108 
	C140.320419,92.196404 141.724457,91.076302 141.809982,89.863235 
	C142.099152,85.761658 141.829575,81.624496 141.948517,77.505981 
	C142.053772,73.860596 140.135773,74.577423 137.896042,75.236832 
	C137.896042,79.435379 137.896042,83.389885 137.896042,88.299210 
M182.973999,78.614304 
	C182.974365,82.409676 183.055328,86.207260 182.951080,89.999756 
	C182.857895,93.389786 184.479584,93.319092 186.758850,92.408417 
	C186.758850,86.408310 186.758850,80.687538 186.758850,74.966759 
	C186.328445,74.713928 185.898041,74.461098 185.467636,74.208267 
	C184.636490,75.351326 183.805359,76.494385 182.973999,78.614304 
z"/>
<path fill="#11B7D5" opacity="1.000000" stroke="none" 
	d="
M47.929813,73.985466 
	C50.787334,63.436485 64.845573,63.671535 70.946724,69.610306 
	C76.795021,75.302956 77.008926,75.083199 84.434937,73.627060 
	C82.019920,80.167061 73.681160,82.935707 66.654518,79.348030 
	C64.766960,78.384277 63.078617,76.919434 61.513943,75.454811 
	C56.598618,70.853806 54.840797,70.552109 48.318092,73.800049 
	C47.968937,73.970680 47.929813,73.985466 47.929813,73.985466 
z"/>
<path fill="#111111" opacity="1.000000" stroke="none" 
	d="
M169.213989,88.875198 
	C168.438065,86.323769 167.778839,84.150482 166.757965,80.784904 
	C165.372025,84.982338 164.510330,87.959686 163.368118,90.825218 
	C163.029831,91.673882 161.805511,92.838341 161.157089,92.739845 
	C160.148285,92.586632 158.766251,91.658249 158.445709,90.742294 
	C156.655731,85.627426 155.137421,80.417480 153.372665,74.746361 
	C161.086929,74.783844 157.291214,82.313263 161.580978,84.704079 
	C162.327469,82.375740 162.951294,79.762772 164.033707,77.356071 
	C164.521255,76.272049 165.817566,75.255135 166.961090,74.902679 
	C167.446793,74.752968 168.800522,76.255569 169.206100,77.236229 
	C170.264008,79.794128 171.016052,82.478523 171.919510,85.201202 
	C175.886169,82.530571 172.346359,74.948837 180.059113,74.593460 
	C178.255066,80.396881 176.685638,85.703758 174.896301,90.935417 
	C174.613770,91.761536 172.782669,92.924446 172.609894,92.782730 
	C171.379562,91.773628 170.394104,90.465965 169.213989,88.875198 
z"/>
<path fill="#0FB7D4" opacity="1.000000" stroke="none" 
	d="
M71.673027,89.479706 
	C67.467415,97.081253 57.894005,98.846230 50.843994,92.928642 
	C46.489441,89.273544 42.826500,84.567459 35.539295,88.918381 
	C39.835030,79.935982 49.996014,78.445763 57.229042,84.523987 
	C59.133984,86.124809 60.760841,88.430321 62.945683,89.216606 
	C65.028572,89.966209 67.672806,89.155998 70.645554,89.102165 
	C71.371574,89.275116 71.522301,89.377411 71.673027,89.479706 
z"/>
<path fill="#141414" opacity="1.000000" stroke="none" 
	d="
M225.447250,91.642944 
	C220.726044,94.206963 216.711075,93.718781 213.550934,89.826920 
	C210.635101,86.235977 210.448715,82.227524 213.006363,78.297890 
	C215.782654,74.032318 219.535980,73.394066 226.850235,75.904594 
	C226.850235,73.219688 226.850235,70.617462 226.850235,68.015236 
	C227.238602,67.686462 227.626984,67.357681 228.015350,67.028908 
	C228.955261,68.020088 230.678101,68.986862 230.709900,70.006371 
	C230.942215,77.456261 230.835052,84.916733 230.835052,93.268143 
	C228.774017,92.515213 227.277267,91.968437 225.447250,91.642944 
M224.980316,79.420830 
	C222.543655,79.297310 219.679535,78.306992 217.768539,79.249405 
	C214.752518,80.736763 214.272064,83.958603 216.289810,86.906075 
	C218.289078,89.826553 221.267731,90.352676 224.096954,88.546005 
	C227.432632,86.415894 227.822952,83.313988 224.980316,79.420830 
z"/>
<path fill="#0F0F0F" opacity="1.000000" stroke="none" 
	d="
M113.909988,83.165283 
	C115.935379,75.088440 119.727608,73.136658 127.454483,75.358276 
	C128.993500,75.800774 130.897293,74.974655 132.943817,74.690323 
	C132.943817,80.741982 132.943817,86.487282 132.943817,92.111488 
	C129.395554,92.445885 125.748238,93.110809 122.112617,93.052002 
	C117.428055,92.976234 114.619156,89.450706 113.909988,83.165283 
M124.340401,78.045921 
	C122.236496,79.457001 119.239021,80.418411 118.247269,82.389160 
	C116.906181,85.054108 118.346497,88.453682 121.573601,88.834579 
	C123.828888,89.100777 127.394753,87.991547 128.492477,86.285332 
	C130.689529,82.870422 129.131256,79.683212 124.340401,78.045921 
z"/>
<path fill="#0D0D0D" opacity="1.000000" stroke="none" 
	d="
M207.383911,78.139313 
	C207.820480,83.106789 208.060287,87.705063 208.298538,92.273811 
	C204.276917,92.682945 204.228851,92.684517 204.133804,89.771744 
	C204.058014,87.449150 204.594177,84.983955 203.971939,82.839363 
	C203.443283,81.017372 201.647842,79.562935 200.412888,77.945869 
	C198.760345,79.430267 196.311630,80.630257 195.654358,82.470192 
	C194.810165,84.833443 195.634781,87.742882 195.269684,90.351112 
	C195.117294,91.439835 193.752853,92.358894 192.939514,93.355087 
	C192.542252,93.070343 192.145004,92.785599 191.747742,92.500854 
	C191.747742,86.746971 191.747742,80.993088 191.747742,74.513542 
	C196.812668,77.234177 203.150284,70.559517 207.383911,78.139313 
z"/>
<path fill="#121212" opacity="1.000000" stroke="none" 
	d="
M234.882477,86.940628 
	C233.804825,81.261238 235.484497,77.202660 239.484283,75.207085 
	C243.732224,73.087700 247.727036,74.082703 253.133652,79.565300 
	C250.322693,79.361107 248.559662,79.690765 247.287674,79.048279 
	C244.363251,77.571136 241.373978,77.402748 239.838577,80.164040 
	C238.805161,82.022537 238.649887,85.975159 239.851379,87.068832 
	C241.394211,88.473221 244.685486,88.099068 247.235062,88.200279 
	C248.695786,88.258255 250.179398,87.739555 252.590668,87.315544 
	C247.166412,95.532440 239.892273,95.043182 234.882477,86.940628 
z"/>
<path fill="#101010" opacity="1.000000" stroke="none" 
	d="
M281.281067,79.108459 
	C279.274689,78.630844 277.594788,78.348465 275.914886,78.066078 
	C275.726807,78.657913 275.538727,79.249756 275.350647,79.841591 
	C276.614258,80.555939 277.809937,81.452858 279.153381,81.952652 
	C284.626190,83.988678 286.485687,86.509857 284.838043,89.916557 
	C283.288330,93.120628 277.490906,94.340775 273.747711,92.132629 
	C272.671600,91.497833 271.831329,90.463181 271.163940,88.300873 
	C274.444061,88.566132 277.724213,88.831398 282.092041,89.184624 
	C278.972198,83.459793 267.325470,85.671478 273.066528,76.274940 
	C275.172577,72.827896 280.220459,73.559990 284.959351,77.669289 
	C283.671448,78.297295 282.639496,78.800491 281.281067,79.108459 
z"/>
<path fill="#0E0E0E" opacity="1.000000" stroke="none" 
	d="
M266.192688,78.995285 
	C263.613647,78.781830 261.349396,78.438835 259.085144,78.095840 
	C258.902344,78.736687 258.719574,79.377525 258.536774,80.018372 
	C259.854980,80.685822 261.118286,81.512474 262.502167,81.989388 
	C265.971527,83.185036 269.575195,84.476540 268.122803,89.133667 
	C266.714844,93.648285 262.661133,93.558441 258.989258,92.879120 
	C257.195312,92.547241 255.613617,91.068275 253.935852,90.108513 
	C254.050888,89.521439 254.165909,88.934357 254.280945,88.347282 
	C257.567261,88.621811 260.853577,88.896347 264.139923,89.170876 
	C264.295929,88.490250 264.451935,87.809616 264.607941,87.128990 
	C262.486542,86.197281 260.008606,85.672760 258.346039,84.217010 
	C256.747772,82.817558 254.595734,79.558632 255.149475,78.694275 
	C256.438599,76.682014 259.125824,74.662636 261.405640,74.463051 
	C263.358154,74.292114 265.531738,76.646286 267.607544,77.883682 
	C267.240875,78.211037 266.874176,78.538391 266.192688,78.995285 
z"/>
<path fill="#171717" opacity="1.000000" stroke="none" 
	d="
M104.055336,70.071381 
	C105.194946,69.425133 106.099380,69.124840 107.366554,68.704117 
	C107.534088,70.717361 107.666290,72.305984 107.754250,73.362953 
	C109.413574,74.633598 110.744858,75.653038 112.076141,76.672485 
	C110.775139,77.561531 109.474136,78.450577 108.070740,79.409599 
	C105.465027,84.617233 108.803238,88.522858 113.011009,92.383232 
	C105.253265,93.295403 103.989616,92.007614 103.643150,85.587059 
	C103.501183,82.956192 105.892326,78.923904 100.761040,78.057404 
	C100.958794,76.971695 100.971497,75.806229 101.397095,74.818718 
	C102.056877,73.287849 102.998199,71.878326 104.055336,70.071381 
z"/>
<path fill="#212121" opacity="1.000000" stroke="none" 
	d="
M146.334534,82.943375 
	C146.334747,78.129570 146.170914,73.794556 146.436264,69.485977 
	C146.514709,68.212135 147.803909,67.012863 148.538269,65.779419 
	C149.035126,66.014603 149.531982,66.249786 150.028839,66.484970 
	C150.028839,75.053192 150.028839,83.621422 150.028839,92.484138 
	C147.646652,93.489098 146.184174,93.139618 146.318298,89.918922 
	C146.408188,87.760231 146.334839,85.594734 146.334534,82.943375 
z"/>
<path fill="#101010" opacity="1.000000" stroke="none" 
	d="
M137.896042,87.821808 
	C137.896042,83.389885 137.896042,79.435379 137.896042,75.236832 
	C140.135773,74.577423 142.053772,73.860596 141.948517,77.505981 
	C141.829575,81.624496 142.099152,85.761658 141.809982,89.863235 
	C141.724457,91.076302 140.320419,92.196404 139.520584,93.359108 
	C139.055893,93.117401 138.591202,92.875694 138.126526,92.633980 
	C138.049698,91.189056 137.972870,89.744133 137.896042,87.821808 
z"/>
<path fill="#060606" opacity="1.000000" stroke="none" 
	d="
M182.974121,78.125870 
	C183.805359,76.494385 184.636490,75.351326 185.467636,74.208267 
	C185.898041,74.461098 186.328445,74.713928 186.758850,74.966759 
	C186.758850,80.687538 186.758850,86.408310 186.758850,92.408417 
	C184.479584,93.319092 182.857895,93.389786 182.951080,89.999756 
	C183.055328,86.207260 182.974365,82.409676 182.974121,78.125870 
z"/>
<path fill="#11B7D5" opacity="1.000000" stroke="none" 
	d="
M47.973103,73.955269 
	C47.977268,73.939857 47.788498,74.091537 47.788498,74.091537 
	C47.788498,74.091537 48.052441,74.075706 47.991127,74.030586 
	C47.929813,73.985466 47.968937,73.970680 47.973103,73.955269 
z"/>
<path fill="#0FB7D4" opacity="1.000000" stroke="none" 
	d="
M71.017509,88.990295 
	C71.108513,88.618317 71.402855,88.428864 71.697189,88.239410 
	C71.772171,88.495041 71.847153,88.750664 71.797577,89.242996 
	C71.522301,89.377411 71.371574,89.275116 71.017509,88.990295 
z"/>
<path fill="#F2F2F2" opacity="1.000000" stroke="none" 
	d="
M225.246033,79.711563 
	C227.822952,83.313988 227.432632,86.415894 224.096954,88.546005 
	C221.267731,90.352676 218.289078,89.826553 216.289810,86.906075 
	C214.272064,83.958603 214.752518,80.736763 217.768539,79.249405 
	C219.679535,78.306992 222.543655,79.297310 225.246033,79.711563 
z"/>
<path fill="#F7F7F7" opacity="1.000000" stroke="none" 
	d="
M124.742012,78.078918 
	C129.131256,79.683212 130.689529,82.870422 128.492477,86.285332 
	C127.394753,87.991547 123.828888,89.100777 121.573601,88.834579 
	C118.346497,88.453682 116.906181,85.054108 118.247269,82.389160 
	C119.239021,80.418411 122.236496,79.457001 124.742012,78.078918 
z"/>
</svg>